# Blender v2.79 (sub 0) OBJ File: 'MinecraftCreeperModel.blend'
# www.blender.org
o Plane
v -1.510000 5.800000 -1.000000
v -1.510000 5.200000 -1.000000
v -1.510000 5.800000 -0.400000
v -1.510000 5.200000 -0.400000
vn -1.0000 0.0000 0.0000
s off
f 2//1 3//1 1//1
f 2//1 4//1 3//1
o Cube
v -1.500000 3.500000 1.500000
v -1.500000 3.500000 -1.500000
v 1.500000 3.500000 -1.500000
v 1.500000 3.500000 1.500000
v -1.500001 6.500000 1.499999
v -1.499999 6.500000 -1.500001
v 1.500000 6.500000 -1.500000
v 1.500000 6.500000 1.500000
vn 0.0000 -1.0000 0.0000
vn 0.0000 1.0000 0.0000
vn -1.0000 -0.0000 0.0000
vn 0.0000 -0.0000 -1.0000
vn 1.0000 -0.0000 0.0000
vn -0.0000 0.0000 1.0000
s off
f 6//2 8//2 5//2
f 9//3 11//3 10//3
f 9//4 6//4 5//4
f 10//5 7//5 6//5
f 11//6 8//6 7//6
f 5//7 12//7 9//7
f 6//2 7//2 8//2
f 9//3 12//3 11//3
f 9//4 10//4 6//4
f 10//5 11//5 7//5
f 11//6 12//6 8//6
f 5//7 8//7 12//7
o Cube.001
v -1.000000 -1.500000 1.500000
v -1.000000 -1.500000 -1.500000
v 1.000000 -1.500000 -1.500000
v 1.000000 -1.500000 1.500000
v -1.000000 3.500000 1.499999
v -0.999999 3.500000 -1.500001
v 1.000000 3.500000 -1.500000
v 1.000000 3.500000 1.500000
vn 0.0000 -1.0000 0.0000
vn 0.0000 1.0000 -0.0000
vn -1.0000 -0.0000 0.0000
vn 0.0000 -0.0000 -1.0000
vn 1.0000 -0.0000 0.0000
vn -0.0000 0.0000 1.0000
s off
f 14//8 16//8 13//8
f 20//9 18//9 17//9
f 17//10 14//10 13//10
f 18//11 15//11 14//11
f 19//12 16//12 15//12
f 13//13 20//13 17//13
f 14//8 15//8 16//8
f 20//9 19//9 18//9
f 17//10 18//10 14//10
f 18//11 19//11 15//11
f 19//12 20//12 16//12
f 13//13 16//13 20//13
o Cube.002
v -2.400000 -3.500000 1.500000
v -2.400000 -3.500000 -1.500000
v -1.000000 -3.500000 -1.500000
v -1.000000 -3.500000 1.500000
v -2.400000 -1.500000 1.499999
v -2.400000 -1.500000 -1.500001
v -1.000000 -1.500000 -1.500000
v -1.000000 -1.500000 1.500000
vn 0.0000 -1.0000 0.0000
vn 0.0000 1.0000 0.0000
vn -1.0000 0.0000 0.0000
vn 0.0000 -0.0000 -1.0000
vn 1.0000 -0.0000 0.0000
vn -0.0000 0.0000 1.0000
s off
f 21//14 23//14 24//14
f 25//15 27//15 26//15
f 25//16 22//16 21//16
f 26//17 23//17 22//17
f 27//18 24//18 23//18
f 21//19 28//19 25//19
f 21//14 22//14 23//14
f 25//15 28//15 27//15
f 25//16 26//16 22//16
f 26//17 27//17 23//17
f 27//18 28//18 24//18
f 21//19 24//19 28//19
o Cube.003
v 1.000000 -3.500000 1.500000
v 1.000000 -3.500000 -1.500000
v 2.400000 -3.500000 -1.500000
v 2.400000 -3.500000 1.500000
v 1.000000 -1.500000 1.499999
v 1.000000 -1.500000 -1.500001
v 2.400000 -1.500000 -1.500000
v 2.400000 -1.500000 1.500000
vn 0.0000 -1.0000 0.0000
vn 0.0000 1.0000 -0.0000
vn -1.0000 -0.0000 0.0000
vn 0.0000 -0.0000 -1.0000
vn 1.0000 0.0000 0.0000
vn -0.0000 0.0000 1.0000
s off
f 29//20 31//20 32//20
f 33//21 35//21 34//21
f 33//22 30//22 29//22
f 34//23 31//23 30//23
f 35//24 32//24 31//24
f 29//25 36//25 33//25
f 29//20 30//20 31//20
f 33//21 36//21 35//21
f 33//22 34//22 30//22
f 34//23 35//23 31//23
f 35//24 36//24 32//24
f 29//25 32//25 36//25
o Plane.001
v -1.510000 5.200000 -0.400000
v -1.510000 4.700000 -0.400000
v -1.510000 5.200000 0.400000
v -1.510000 4.700000 0.400000
vn -1.0000 0.0000 0.0000
s off
f 38//26 39//26 37//26
f 38//26 40//26 39//26
o Plane.002
v -1.510000 5.800000 0.400000
v -1.510000 5.200000 0.400000
v -1.510000 5.800000 1.000000
v -1.510000 5.200000 1.000000
vn -1.0000 0.0000 0.0000
s off
f 42//27 43//27 41//27
f 42//27 44//27 43//27
o Plane.003
v -1.510000 4.700000 -0.800000
v -1.510000 4.200000 -0.800000
v -1.510000 4.700000 0.800000
v -1.510000 4.200000 0.800000
vn -1.0000 0.0000 0.0000
s off
f 46//28 47//28 45//28
f 46//28 48//28 47//28
o Plane.004
v -1.510000 4.200000 0.800000
v -1.510000 4.200000 0.300000
v -1.510000 3.800000 0.800000
v -1.510000 3.800000 0.300000
vn -1.0000 0.0000 0.0000
s off
f 50//29 51//29 49//29
f 50//29 52//29 51//29
o Plane.005
v -1.510000 4.200000 -0.300000
v -1.510000 4.200000 -0.800000
v -1.510000 3.800000 -0.300000
v -1.510000 3.800000 -0.800000
vn -1.0000 0.0000 0.0000
s off
f 54//30 55//30 53//30
f 54//30 56//30 55//30
o Plane.006
v -2.401000 -3.100000 -1.500000
v -2.401000 -3.500000 -1.500000
v -2.401000 -3.100000 -1.100000
v -2.401000 -3.500000 -1.100000
vn -1.0000 0.0000 0.0000
s off
f 58//31 59//31 57//31
f 58//31 60//31 59//31
o Plane.007
v -2.401000 -3.100000 -0.300000
v -2.401000 -3.500000 -0.300000
v -2.401000 -3.100000 0.100000
v -2.401000 -3.500000 0.100000
vn -1.0000 0.0000 0.0000
s off
f 62//32 63//32 61//32
f 62//32 64//32 63//32
o Plane.008
v -2.401000 -3.100000 -0.700000
v -2.401000 -3.500000 -0.700000
v -2.401000 -3.100000 -0.300000
v -2.401000 -3.500000 -0.300000
vn -1.0000 0.0000 0.0000
s off
f 66//33 67//33 65//33
f 66//33 68//33 67//33
o Plane.009
v -2.401000 -3.100000 -1.100000
v -2.401000 -3.500000 -1.100000
v -2.401000 -3.100000 -0.700000
v -2.401000 -3.500000 -0.700000
vn -1.0000 0.0000 0.0000
s off
f 70//34 71//34 69//34
f 70//34 72//34 71//34
o Plane.010
v -2.401000 -3.100000 0.900000
v -2.401000 -3.500000 0.900000
v -2.401000 -3.100000 1.300000
v -2.401000 -3.500000 1.300000
vn -1.0000 0.0000 0.0000
s off
f 74//35 75//35 73//35
f 74//35 76//35 75//35
o Plane.011
v -2.401000 -3.100000 0.500000
v -2.401000 -3.500000 0.500000
v -2.401000 -3.100000 0.900000
v -2.401000 -3.500000 0.900000
vn -1.0000 0.0000 0.0000
s off
f 78//36 79//36 77//36
f 78//36 80//36 79//36
o Plane.012
v -2.401000 -3.100000 0.100000
v -2.401000 -3.500000 0.100000
v -2.401000 -3.100000 0.500000
v -2.401000 -3.500000 0.500000
vn -1.0000 0.0000 0.0000
s off
f 82//37 83//37 81//37
f 82//37 84//37 83//37
o Plane.013
v -2.401000 -3.100000 1.300000
v -2.401000 -3.500000 1.300000
v -2.401000 -3.100000 1.500000
v -2.401000 -3.500000 1.500000
vn -1.0000 0.0000 0.0000
s off
f 86//38 87//38 85//38
f 86//38 88//38 87//38
o Plane.021
v -2.401000 -2.700000 -1.500000
v -2.401000 -3.100000 -1.500000
v -2.401000 -2.700000 -1.100000
v -2.401000 -3.100000 -1.100000
vn -1.0000 0.0000 0.0000
s off
f 90//39 91//39 89//39
f 90//39 92//39 91//39
o Plane.020
v -2.401000 -2.700000 -0.300000
v -2.401000 -3.100000 -0.300000
v -2.401000 -2.700000 0.100000
v -2.401000 -3.100000 0.100000
vn -1.0000 0.0000 0.0000
s off
f 94//40 95//40 93//40
f 94//40 96//40 95//40
o Plane.019
v -2.401000 -2.700000 -0.700000
v -2.401000 -3.100000 -0.700000
v -2.401000 -2.700000 -0.300000
v -2.401000 -3.100000 -0.300000
vn -1.0000 0.0000 0.0000
s off
f 98//41 99//41 97//41
f 98//41 100//41 99//41
o Plane.018
v -2.401000 -2.700000 -1.100000
v -2.401000 -3.100000 -1.100000
v -2.401000 -2.700000 -0.700000
v -2.401000 -3.100000 -0.700000
vn -1.0000 0.0000 0.0000
s off
f 102//42 103//42 101//42
f 102//42 104//42 103//42
o Plane.017
v -2.401000 -2.700000 0.900000
v -2.401000 -3.100000 0.900000
v -2.401000 -2.700000 1.300000
v -2.401000 -3.100000 1.300000
vn -1.0000 0.0000 0.0000
s off
f 106//43 107//43 105//43
f 106//43 108//43 107//43
o Plane.016
v -2.401000 -2.700000 0.500000
v -2.401000 -3.100000 0.500000
v -2.401000 -2.700000 0.900000
v -2.401000 -3.100000 0.900000
vn -1.0000 0.0000 0.0000
s off
f 110//44 111//44 109//44
f 110//44 112//44 111//44
o Plane.015
v -2.401000 -2.700000 0.100000
v -2.401000 -3.100000 0.100000
v -2.401000 -2.700000 0.500000
v -2.401000 -3.100000 0.500000
vn -1.0000 0.0000 0.0000
s off
f 114//45 115//45 113//45
f 114//45 116//45 115//45
o Plane.014
v -2.401000 -2.700000 1.300000
v -2.401000 -3.100000 1.300000
v -2.401000 -2.700000 1.500000
v -2.401000 -3.100000 1.500000
vn -1.0000 0.0000 0.0000
s off
f 118//46 119//46 117//46
f 118//46 120//46 119//46
o Plane.037
v 0.996852 -3.100000 -1.500000
v 0.996852 -3.500000 -1.500000
v 0.996852 -3.100000 -1.100000
v 0.996852 -3.500000 -1.100000
vn -1.0000 0.0000 0.0000
s off
f 122//47 123//47 121//47
f 122//47 124//47 123//47
o Plane.036
v 0.996852 -3.100000 -0.300000
v 0.996852 -3.500000 -0.300000
v 0.996852 -3.100000 0.100000
v 0.996852 -3.500000 0.100000
vn -1.0000 0.0000 0.0000
s off
f 126//48 127//48 125//48
f 126//48 128//48 127//48
o Plane.035
v 0.996852 -3.100000 -0.700000
v 0.996852 -3.500000 -0.700000
v 0.996852 -3.100000 -0.300000
v 0.996852 -3.500000 -0.300000
vn -1.0000 0.0000 0.0000
s off
f 130//49 131//49 129//49
f 130//49 132//49 131//49
o Plane.034
v 0.996852 -3.100000 -1.100000
v 0.996852 -3.500000 -1.100000
v 0.996852 -3.100000 -0.700000
v 0.996852 -3.500000 -0.700000
vn -1.0000 0.0000 0.0000
s off
f 134//50 135//50 133//50
f 134//50 136//50 135//50
o Plane.033
v 0.996852 -3.100000 0.900000
v 0.996852 -3.500000 0.900000
v 0.996852 -3.100000 1.300000
v 0.996852 -3.500000 1.300000
vn -1.0000 0.0000 0.0000
s off
f 138//51 139//51 137//51
f 138//51 140//51 139//51
o Plane.032
v 0.996852 -3.100000 0.500000
v 0.996852 -3.500000 0.500000
v 0.996852 -3.100000 0.900000
v 0.996852 -3.500000 0.900000
vn -1.0000 0.0000 0.0000
s off
f 142//52 143//52 141//52
f 142//52 144//52 143//52
o Plane.031
v 0.996852 -3.100000 0.100000
v 0.996852 -3.500000 0.100000
v 0.996852 -3.100000 0.500000
v 0.996852 -3.500000 0.500000
vn -1.0000 0.0000 0.0000
s off
f 146//53 147//53 145//53
f 146//53 148//53 147//53
o Plane.030
v 0.996852 -3.100000 1.300000
v 0.996852 -3.500000 1.300000
v 0.996852 -3.100000 1.500000
v 0.996852 -3.500000 1.500000
vn -1.0000 0.0000 0.0000
s off
f 150//54 151//54 149//54
f 150//54 152//54 151//54
o Plane.029
v 0.996852 -2.700000 1.300000
v 0.996852 -3.100000 1.300000
v 0.996852 -2.700000 1.500000
v 0.996852 -3.100000 1.500000
vn -1.0000 0.0000 0.0000
s off
f 154//55 155//55 153//55
f 154//55 156//55 155//55
o Plane.028
v 0.996852 -2.700000 0.100000
v 0.996852 -3.100000 0.100000
v 0.996852 -2.700000 0.500000
v 0.996852 -3.100000 0.500000
vn -1.0000 0.0000 0.0000
s off
f 158//56 159//56 157//56
f 158//56 160//56 159//56
o Plane.027
v 0.996852 -2.700000 0.500000
v 0.996852 -3.100000 0.500000
v 0.996852 -2.700000 0.900000
v 0.996852 -3.100000 0.900000
vn -1.0000 0.0000 0.0000
s off
f 162//57 163//57 161//57
f 162//57 164//57 163//57
o Plane.026
v 0.996852 -2.700000 0.900000
v 0.996852 -3.100000 0.900000
v 0.996852 -2.700000 1.300000
v 0.996852 -3.100000 1.300000
vn -1.0000 0.0000 0.0000
s off
f 166//58 167//58 165//58
f 166//58 168//58 167//58
o Plane.025
v 0.996852 -2.700000 -1.100000
v 0.996852 -3.100000 -1.100000
v 0.996852 -2.700000 -0.700000
v 0.996852 -3.100000 -0.700000
vn -1.0000 0.0000 0.0000
s off
f 170//59 171//59 169//59
f 170//59 172//59 171//59
o Plane.024
v 0.996852 -2.700000 -0.700000
v 0.996852 -3.100000 -0.700000
v 0.996852 -2.700000 -0.300000
v 0.996852 -3.100000 -0.300000
vn -1.0000 0.0000 0.0000
s off
f 174//60 175//60 173//60
f 174//60 176//60 175//60
o Plane.023
v 0.996852 -2.700000 -0.300000
v 0.996852 -3.100000 -0.300000
v 0.996852 -2.700000 0.100000
v 0.996852 -3.100000 0.100000
vn -1.0000 0.0000 0.0000
s off
f 178//61 179//61 177//61
f 178//61 180//61 179//61
o Plane.022
v 0.996852 -2.700000 -1.500000
v 0.996852 -3.100000 -1.500000
v 0.996852 -2.700000 -1.100000
v 0.996852 -3.100000 -1.100000
vn -1.0000 0.0000 0.0000
s off
f 182//62 183//62 181//62
f 182//62 184//62 183//62
